<?xml version="1.0" standalone="no"?><!DOCTYPE svg PUBLIC "-//W3C//DTD SVG 1.1//EN" "http://www.w3.org/Graphics/SVG/1.1/DTD/svg11.dtd"><svg t="1751120092075" class="icon" viewBox="0 0 1024 1024" version="1.1" xmlns="http://www.w3.org/2000/svg" p-id="28543" xmlns:xlink="http://www.w3.org/1999/xlink" width="200" height="200"><path d="M810.666667 601.6V341.333333c0-72.533333-55.466667-128-128-128h-128c-25.6 0-42.666667 17.066667-42.666667 42.666667s17.066667 42.666667 42.666667 42.666667h128c25.6 0 42.666667 17.066667 42.666666 42.666666v260.266667c-72.533333 17.066667-128 85.333333-128 166.4 0 93.866667 76.8 170.666667 170.666667 170.666667s170.666667-76.8 170.666667-170.666667c0-81.066667-55.466667-145.066667-128-166.4zM768 853.333333c-46.933333 0-85.333333-38.4-85.333333-85.333333s38.4-85.333333 85.333333-85.333333 85.333333 38.4 85.333333 85.333333-38.4 85.333333-85.333333 85.333333zM213.333333 422.4V896c0 25.6 17.066667 42.666667 42.666667 42.666667s42.666667-17.066667 42.666667-42.666667V422.4c-12.8 0-29.866667 4.266667-42.666667 4.266667s-29.866667-4.266667-42.666667-4.266667z" p-id="28544"></path><path d="M256 85.333333C162.133333 85.333333 85.333333 162.133333 85.333333 256c0 81.066667 55.466667 145.066667 128 166.4 12.8 0 29.866667 4.266667 42.666667 4.266667s29.866667-4.266667 42.666667-4.266667c72.533333-17.066667 128-85.333333 128-166.4 0-93.866667-76.8-170.666667-170.666667-170.666667z m0 256c-46.933333 0-85.333333-38.4-85.333333-85.333333s38.4-85.333333 85.333333-85.333333 85.333333 38.4 85.333333 85.333333-38.4 85.333333-85.333333 85.333333z" fill="#BF2E45" p-id="28545"></path></svg>